# xmcd
#
# Track frame offsets:
#	150
#	19531
#	34978
#	50986
#	67409
#	81434
#	97187
#	114862
#	128915
#	141304
#	161459
#	177581
#	192192
#	205528
#	219088
#	235941
#
# Disc length: 3351 seconds
#
# Revision: 0
# Processed by: cddbd v1.5.1PL0 Copyright (c) Steve Scherf et al.
# Submitted via: dBpowerAMP V4.0
#
DISCID=eb0d1510
DTITLE=Rowetta - Rowetta
DYEAR=2005
DGENRE=R&B/Soul
TTITLE0=Hello Detroit
TTITLE1=The Look Of Love
TTITLE2=Fly
TTITLE3=Stop Crying Your Heart Out
TTITLE4=Thunder And Lightning
TTITLE5=Higher Ground
TTITLE6=If Ever I Would Leave You
TTITLE7=Pure, Faithful And True
TTITLE8=Just A Little Bit
TTITLE9=The Greatest Performance Of My Life
TTITLE10=It Should Have Been Me
TTITLE11=Eleanor Rigby
TTITLE12=Somewhere
TTITLE13=Under The Boardwalk
TTITLE14=And I'm Telling You I'm Not Going
TTITLE15=Over The Rainbow
EXTD=
EXTT0=
EXTT1=
EXTT2=
EXTT3=
EXTT4=
EXTT5=
EXTT6=
EXTT7=
EXTT8=
EXTT9=
EXTT10=
EXTT11=
EXTT12=
EXTT13=
EXTT14=
EXTT15=
PLAYORDER=
